<?xml version="1.0" encoding="utf-8" standalone="no"?>
<!DOCTYPE svg PUBLIC "-//W3C//DTD SVG 1.1//EN"
  "http://www.w3.org/Graphics/SVG/1.1/DTD/svg11.dtd">
<svg xmlns:xlink="http://www.w3.org/1999/xlink" width="323.049688pt" height="219.324312pt" viewBox="0 0 323.049688 219.324312" xmlns="http://www.w3.org/2000/svg" version="1.1">
 <metadata>
  <rdf:RDF xmlns:dc="http://purl.org/dc/elements/1.1/" xmlns:cc="http://creativecommons.org/ns#" xmlns:rdf="http://www.w3.org/1999/02/22-rdf-syntax-ns#">
   <cc:Work>
    <dc:type rdf:resource="http://purl.org/dc/dcmitype/StillImage"/>
    <dc:date>2026-09-11T16:43:12.729939</dc:date>
    <dc:format>image/svg+xml</dc:format>
    <dc:creator>
     <cc:Agent>
      <dc:title>Matplotlib v3.10.3, https://matplotlib.org/</dc:title>
     </cc:Agent>
    </dc:creator>
   </cc:Work>
  </rdf:RDF>
 </metadata>
 <defs>
  <style type="text/css">*{stroke-linejoin: round; stroke-linecap: butt}</style>
 </defs>
 <g id="figure_1">
  <g id="patch_1">
   <path d="M 0 219.324312 
L 323.049688 219.324312 
L 323.049688 0 
L 0 0 
z
" style="fill: #ffffff"/>
  </g>
  <g id="axes_1">
   <g id="patch_2">
    <path d="M 38.579688 182.432125 
L 315.849687 182.432125 
L 315.849687 21.808125 
L 38.579688 21.808125 
z
" style="fill: #ffffff"/>
   </g>
   <g id="matplotlib.axis_1">
    <g id="xtick_1">
     <g id="line2d_1">
      <path d="M 91.756052 182.432125 
L 91.756052 21.808125 
" clip-path="url(#p584f610cb0)" style="fill: none; stroke: #e3e3e3; stroke-width: 0.6; stroke-linecap: square"/>
     </g>
     <g id="line2d_2">
      <defs>
       <path id="m4356f9a134" d="M 0 0 
L 0 3.5 
" style="stroke: #000000; stroke-width: 0.8"/>
      </defs>
      <g>
       <use xlink:href="#m4356f9a134" x="91.756052" y="182.432125" style="stroke: #000000; stroke-width: 0.8"/>
      </g>
     </g>
     <g id="text_1">
      <!-- $\mathdefault{10^{2}}$ -->
      <g transform="translate(84.056052 196.605562)">
       <text>
        <tspan x="0" y="-0.425" style="font-size: 10px; font-family: 'Helvetica'">1</tspan>
        <tspan x="5.561523" y="-0.425" style="font-size: 10px; font-family: 'Helvetica'">0</tspan>
        <tspan x="11.214648" y="-4.089063" style="font-size: 7px; font-family: 'Helvetica'">2</tspan>
       </text>
      </g>
     </g>
    </g>
    <g id="xtick_2">
     <g id="line2d_3">
      <path d="M 301.090371 182.432125 
L 301.090371 21.808125 
" clip-path="url(#p584f610cb0)" style="fill: none; stroke: #e3e3e3; stroke-width: 0.6; stroke-linecap: square"/>
     </g>
     <g id="line2d_4">
      <g>
       <use xlink:href="#m4356f9a134" x="301.090371" y="182.432125" style="stroke: #000000; stroke-width: 0.8"/>
      </g>
     </g>
     <g id="text_2">
      <!-- $\mathdefault{10^{3}}$ -->
      <g transform="translate(293.390371 196.605562)">
       <text>
        <tspan x="0" y="-0.435938" style="font-size: 10px; font-family: 'Helvetica'">1</tspan>
        <tspan x="5.561523" y="-0.435938" style="font-size: 10px; font-family: 'Helvetica'">0</tspan>
        <tspan x="11.214648" y="-4.1" style="font-size: 7px; font-family: 'Helvetica'">3</tspan>
       </text>
      </g>
     </g>
    </g>
    <g id="xtick_3">
     <g id="line2d_5">
      <defs>
       <path id="mc804545b55" d="M 0 0 
L 0 2 
" style="stroke: #000000; stroke-width: 0.6"/>
      </defs>
      <g>
       <use xlink:href="#mc804545b55" x="45.315496" y="182.432125" style="stroke: #000000; stroke-width: 0.6"/>
      </g>
     </g>
    </g>
    <g id="xtick_4">
     <g id="line2d_6">
      <g>
       <use xlink:href="#mc804545b55" x="59.329756" y="182.432125" style="stroke: #000000; stroke-width: 0.6"/>
      </g>
     </g>
    </g>
    <g id="xtick_5">
     <g id="line2d_7">
      <g>
       <use xlink:href="#mc804545b55" x="71.469461" y="182.432125" style="stroke: #000000; stroke-width: 0.6"/>
      </g>
     </g>
    </g>
    <g id="xtick_6">
     <g id="line2d_8">
      <g>
       <use xlink:href="#mc804545b55" x="82.177439" y="182.432125" style="stroke: #000000; stroke-width: 0.6"/>
      </g>
     </g>
    </g>
    <g id="xtick_7">
     <g id="line2d_9">
      <g>
       <use xlink:href="#mc804545b55" x="154.771962" y="182.432125" style="stroke: #000000; stroke-width: 0.6"/>
      </g>
     </g>
    </g>
    <g id="xtick_8">
     <g id="line2d_10">
      <g>
       <use xlink:href="#mc804545b55" x="191.633905" y="182.432125" style="stroke: #000000; stroke-width: 0.6"/>
      </g>
     </g>
    </g>
    <g id="xtick_9">
     <g id="line2d_11">
      <g>
       <use xlink:href="#mc804545b55" x="217.787871" y="182.432125" style="stroke: #000000; stroke-width: 0.6"/>
      </g>
     </g>
    </g>
    <g id="xtick_10">
     <g id="line2d_12">
      <g>
       <use xlink:href="#mc804545b55" x="238.074462" y="182.432125" style="stroke: #000000; stroke-width: 0.6"/>
      </g>
     </g>
    </g>
    <g id="xtick_11">
     <g id="line2d_13">
      <g>
       <use xlink:href="#mc804545b55" x="254.649814" y="182.432125" style="stroke: #000000; stroke-width: 0.6"/>
      </g>
     </g>
    </g>
    <g id="xtick_12">
     <g id="line2d_14">
      <g>
       <use xlink:href="#mc804545b55" x="268.664075" y="182.432125" style="stroke: #000000; stroke-width: 0.6"/>
      </g>
     </g>
    </g>
    <g id="xtick_13">
     <g id="line2d_15">
      <g>
       <use xlink:href="#mc804545b55" x="280.80378" y="182.432125" style="stroke: #000000; stroke-width: 0.6"/>
      </g>
     </g>
    </g>
    <g id="xtick_14">
     <g id="line2d_16">
      <g>
       <use xlink:href="#mc804545b55" x="291.511758" y="182.432125" style="stroke: #000000; stroke-width: 0.6"/>
      </g>
     </g>
    </g>
    <g id="text_3">
     <text style="font-size: 10px; font-family: 'Helvetica', 'Arial', 'DejaVu Sans'; text-anchor: middle" x="177.214687" y="209.980562" transform="rotate(-0 177.214687 209.980562)">n (n by n)</text>
    </g>
   </g>
   <g id="matplotlib.axis_2">
    <g id="ytick_1">
     <g id="line2d_17">
      <path d="M 38.579688 167.028155 
L 315.849687 167.028155 
" clip-path="url(#p584f610cb0)" style="fill: none; stroke: #e3e3e3; stroke-width: 0.6; stroke-linecap: square"/>
     </g>
     <g id="line2d_18">
      <defs>
       <path id="m4f9760766c" d="M 0 0 
L -3.5 0 
" style="stroke: #000000; stroke-width: 0.8"/>
      </defs>
      <g>
       <use xlink:href="#m4f9760766c" x="38.579688" y="167.028155" style="stroke: #000000; stroke-width: 0.8"/>
      </g>
     </g>
     <g id="text_4">
      <text style="font-size: 10px; font-family: 'Helvetica', 'Arial', 'DejaVu Sans'; text-anchor: end" x="31.579688" y="170.614874" transform="rotate(-0 31.579688 170.614874)">5</text>
     </g>
    </g>
    <g id="ytick_2">
     <g id="line2d_19">
      <path d="M 38.579688 138.696409 
L 315.849687 138.696409 
" clip-path="url(#p584f610cb0)" style="fill: none; stroke: #e3e3e3; stroke-width: 0.6; stroke-linecap: square"/>
     </g>
     <g id="line2d_20">
      <g>
       <use xlink:href="#m4f9760766c" x="38.579688" y="138.696409" style="stroke: #000000; stroke-width: 0.8"/>
      </g>
     </g>
     <g id="text_5">
      <text style="font-size: 10px; font-family: 'Helvetica', 'Arial', 'DejaVu Sans'; text-anchor: end" x="31.579688" y="142.283128" transform="rotate(-0 31.579688 142.283128)">10</text>
     </g>
    </g>
    <g id="ytick_3">
     <g id="line2d_21">
      <path d="M 38.579688 110.364663 
L 315.849687 110.364663 
" clip-path="url(#p584f610cb0)" style="fill: none; stroke: #e3e3e3; stroke-width: 0.6; stroke-linecap: square"/>
     </g>
     <g id="line2d_22">
      <g>
       <use xlink:href="#m4f9760766c" x="38.579688" y="110.364663" style="stroke: #000000; stroke-width: 0.8"/>
      </g>
     </g>
     <g id="text_6">
      <text style="font-size: 10px; font-family: 'Helvetica', 'Arial', 'DejaVu Sans'; text-anchor: end" x="31.579688" y="113.951382" transform="rotate(-0 31.579688 113.951382)">15</text>
     </g>
    </g>
    <g id="ytick_4">
     <g id="line2d_23">
      <path d="M 38.579688 82.032917 
L 315.849687 82.032917 
" clip-path="url(#p584f610cb0)" style="fill: none; stroke: #e3e3e3; stroke-width: 0.6; stroke-linecap: square"/>
     </g>
     <g id="line2d_24">
      <g>
       <use xlink:href="#m4f9760766c" x="38.579688" y="82.032917" style="stroke: #000000; stroke-width: 0.8"/>
      </g>
     </g>
     <g id="text_7">
      <text style="font-size: 10px; font-family: 'Helvetica', 'Arial', 'DejaVu Sans'; text-anchor: end" x="31.579688" y="85.619636" transform="rotate(-0 31.579688 85.619636)">20</text>
     </g>
    </g>
    <g id="ytick_5">
     <g id="line2d_25">
      <path d="M 38.579688 53.701171 
L 315.849687 53.701171 
" clip-path="url(#p584f610cb0)" style="fill: none; stroke: #e3e3e3; stroke-width: 0.6; stroke-linecap: square"/>
     </g>
     <g id="line2d_26">
      <g>
       <use xlink:href="#m4f9760766c" x="38.579688" y="53.701171" style="stroke: #000000; stroke-width: 0.8"/>
      </g>
     </g>
     <g id="text_8">
      <text style="font-size: 10px; font-family: 'Helvetica', 'Arial', 'DejaVu Sans'; text-anchor: end" x="31.579688" y="57.28789" transform="rotate(-0 31.579688 57.28789)">25</text>
     </g>
    </g>
    <g id="ytick_6">
     <g id="line2d_27">
      <path d="M 38.579688 25.369425 
L 315.849687 25.369425 
" clip-path="url(#p584f610cb0)" style="fill: none; stroke: #e3e3e3; stroke-width: 0.6; stroke-linecap: square"/>
     </g>
     <g id="line2d_28">
      <g>
       <use xlink:href="#m4f9760766c" x="38.579688" y="25.369425" style="stroke: #000000; stroke-width: 0.8"/>
      </g>
     </g>
     <g id="text_9">
      <text style="font-size: 10px; font-family: 'Helvetica', 'Arial', 'DejaVu Sans'; text-anchor: end" x="31.579688" y="28.956144" transform="rotate(-0 31.579688 28.956144)">30</text>
     </g>
    </g>
    <g id="text_10">
     <text style="font-size: 10px; font-family: 'Helvetica', 'Arial', 'DejaVu Sans'; text-anchor: middle" x="14.373438" y="102.120125" transform="rotate(-90 14.373438 102.120125)">GF/s, one core</text>
    </g>
   </g>
   <g id="line2d_29">
    <path d="M 51.182869 109.571374 
L 114.198778 106.228228 
L 177.214688 117.504263 
L 240.230597 95.06552 
L 303.246506 73.250076 
" clip-path="url(#p584f610cb0)" style="fill: none; stroke: #1f4e79; stroke-width: 1.5; stroke-linecap: square"/>
    <defs>
     <path id="mb7b9b21b55" d="M 0 2 
C 0.530406 2 1.03916 1.789267 1.414214 1.414214 
C 1.789267 1.03916 2 0.530406 2 0 
C 2 -0.530406 1.789267 -1.03916 1.414214 -1.414214 
C 1.03916 -1.789267 0.530406 -2 0 -2 
C -0.530406 -2 -1.03916 -1.789267 -1.414214 -1.414214 
C -1.789267 -1.03916 -2 -0.530406 -2 0 
C -2 0.530406 -1.789267 1.03916 -1.414214 1.414214 
C -1.03916 1.789267 -0.530406 2 0 2 
z
" style="stroke: #1f4e79"/>
    </defs>
    <g clip-path="url(#p584f610cb0)">
     <use xlink:href="#mb7b9b21b55" x="51.182869" y="109.571374" style="fill: #1f4e79; stroke: #1f4e79"/>
     <use xlink:href="#mb7b9b21b55" x="114.198778" y="106.228228" style="fill: #1f4e79; stroke: #1f4e79"/>
     <use xlink:href="#mb7b9b21b55" x="177.214688" y="117.504263" style="fill: #1f4e79; stroke: #1f4e79"/>
     <use xlink:href="#mb7b9b21b55" x="240.230597" y="95.06552" style="fill: #1f4e79; stroke: #1f4e79"/>
     <use xlink:href="#mb7b9b21b55" x="303.246506" y="73.250076" style="fill: #1f4e79; stroke: #1f4e79"/>
    </g>
   </g>
   <g id="line2d_30">
    <path d="M 51.182869 106.001574 
L 114.198778 101.638485 
L 177.214688 71.606835 
L 240.230597 29.109216 
L 303.246506 30.412476 
" clip-path="url(#p584f610cb0)" style="fill: none; stroke: #c55a11; stroke-width: 1.5; stroke-linecap: square"/>
    <defs>
     <path id="mb7517578d7" d="M 0 2 
C 0.530406 2 1.03916 1.789267 1.414214 1.414214 
C 1.789267 1.03916 2 0.530406 2 0 
C 2 -0.530406 1.789267 -1.03916 1.414214 -1.414214 
C 1.03916 -1.789267 0.530406 -2 0 -2 
C -0.530406 -2 -1.03916 -1.789267 -1.414214 -1.414214 
C -1.789267 -1.03916 -2 -0.530406 -2 0 
C -2 0.530406 -1.789267 1.03916 -1.414214 1.414214 
C -1.03916 1.789267 -0.530406 2 0 2 
z
" style="stroke: #c55a11"/>
    </defs>
    <g clip-path="url(#p584f610cb0)">
     <use xlink:href="#mb7517578d7" x="51.182869" y="106.001574" style="fill: #c55a11; stroke: #c55a11"/>
     <use xlink:href="#mb7517578d7" x="114.198778" y="101.638485" style="fill: #c55a11; stroke: #c55a11"/>
     <use xlink:href="#mb7517578d7" x="177.214688" y="71.606835" style="fill: #c55a11; stroke: #c55a11"/>
     <use xlink:href="#mb7517578d7" x="240.230597" y="29.109216" style="fill: #c55a11; stroke: #c55a11"/>
     <use xlink:href="#mb7517578d7" x="303.246506" y="30.412476" style="fill: #c55a11; stroke: #c55a11"/>
    </g>
   </g>
   <g id="line2d_31">
    <path d="M 51.182869 175.131034 
L 114.198778 163.175037 
L 177.214688 135.919898 
L 240.230597 114.501098 
L 303.246506 99.371946 
" clip-path="url(#p584f610cb0)" style="fill: none; stroke: #3a7d44; stroke-width: 1.5; stroke-linecap: square"/>
    <defs>
     <path id="mc7b0e04dc5" d="M 0 2 
C 0.530406 2 1.03916 1.789267 1.414214 1.414214 
C 1.789267 1.03916 2 0.530406 2 0 
C 2 -0.530406 1.789267 -1.03916 1.414214 -1.414214 
C 1.03916 -1.789267 0.530406 -2 0 -2 
C -0.530406 -2 -1.03916 -1.789267 -1.414214 -1.414214 
C -1.789267 -1.03916 -2 -0.530406 -2 0 
C -2 0.530406 -1.789267 1.03916 -1.414214 1.414214 
C -1.03916 1.789267 -0.530406 2 0 2 
z
" style="stroke: #3a7d44"/>
    </defs>
    <g clip-path="url(#p584f610cb0)">
     <use xlink:href="#mc7b0e04dc5" x="51.182869" y="175.131034" style="fill: #3a7d44; stroke: #3a7d44"/>
     <use xlink:href="#mc7b0e04dc5" x="114.198778" y="163.175037" style="fill: #3a7d44; stroke: #3a7d44"/>
     <use xlink:href="#mc7b0e04dc5" x="177.214688" y="135.919898" style="fill: #3a7d44; stroke: #3a7d44"/>
     <use xlink:href="#mc7b0e04dc5" x="240.230597" y="114.501098" style="fill: #3a7d44; stroke: #3a7d44"/>
     <use xlink:href="#mc7b0e04dc5" x="303.246506" y="99.371946" style="fill: #3a7d44; stroke: #3a7d44"/>
    </g>
   </g>
   <g id="patch_3">
    <path d="M 38.579688 182.432125 
L 38.579688 21.808125 
" style="fill: none; stroke: #000000; stroke-width: 0.8; stroke-linejoin: miter; stroke-linecap: square"/>
   </g>
   <g id="patch_4">
    <path d="M 38.579688 182.432125 
L 315.849687 182.432125 
" style="fill: none; stroke: #000000; stroke-width: 0.8; stroke-linejoin: miter; stroke-linecap: square"/>
   </g>
   <g id="text_11">
    <text style="font-size: 12px; font-family: 'Helvetica', 'Arial', 'DejaVu Sans'; text-anchor: middle" x="177.214687" y="15.808125" transform="rotate(-0 177.214687 15.808125)">Dense kernels</text>
   </g>
   <g id="legend_1">
    <g id="line2d_32">
     <path d="M 45.779688 31.946875 
L 53.779688 31.946875 
L 61.779688 31.946875 
" style="fill: none; stroke: #1f4e79; stroke-width: 1.5; stroke-linecap: square"/>
     <g>
      <use xlink:href="#mb7b9b21b55" x="53.779688" y="31.946875" style="fill: #1f4e79; stroke: #1f4e79"/>
     </g>
    </g>
    <g id="text_12">
     <text style="font-size: 8px; font-family: 'Helvetica', 'Arial', 'DejaVu Sans'; text-anchor: start" x="68.179688" y="34.746875" transform="rotate(-0 68.179688 34.746875)">gemv</text>
    </g>
    <g id="line2d_33">
     <path d="M 45.779688 43.455625 
L 53.779688 43.455625 
L 61.779688 43.455625 
" style="fill: none; stroke: #c55a11; stroke-width: 1.5; stroke-linecap: square"/>
     <g>
      <use xlink:href="#mb7517578d7" x="53.779688" y="43.455625" style="fill: #c55a11; stroke: #c55a11"/>
     </g>
    </g>
    <g id="text_13">
     <text style="font-size: 8px; font-family: 'Helvetica', 'Arial', 'DejaVu Sans'; text-anchor: start" x="68.179688" y="46.255625" transform="rotate(-0 68.179688 46.255625)">gemm</text>
    </g>
    <g id="line2d_34">
     <path d="M 45.779688 54.964375 
L 53.779688 54.964375 
L 61.779688 54.964375 
" style="fill: none; stroke: #3a7d44; stroke-width: 1.5; stroke-linecap: square"/>
     <g>
      <use xlink:href="#mc7b0e04dc5" x="53.779688" y="54.964375" style="fill: #3a7d44; stroke: #3a7d44"/>
     </g>
    </g>
    <g id="text_14">
     <text style="font-size: 8px; font-family: 'Helvetica', 'Arial', 'DejaVu Sans'; text-anchor: start" x="68.179688" y="57.764375" transform="rotate(-0 68.179688 57.764375)">solve</text>
    </g>
   </g>
  </g>
 </g>
 <defs>
  <clipPath id="p584f610cb0">
   <rect x="38.579688" y="21.808125" width="277.27" height="160.624"/>
  </clipPath>
 </defs>
</svg>
