<?xml version="1.0" encoding="UTF-8" standalone="no"?>
<!DOCTYPE svg PUBLIC "-//W3C//DTD SVG 1.1//EN"
 "http://www.w3.org/Graphics/SVG/1.1/DTD/svg11.dtd">
<!-- Generated by graphviz version 12.2.1 (20241206.2353)
 -->
<!-- Title: G Pages: 1 -->
<svg width="244pt" height="293pt"
 viewBox="0.00 0.00 244.00 292.62" xmlns="http://www.w3.org/2000/svg" xmlns:xlink="http://www.w3.org/1999/xlink">
<g id="graph0" class="graph" transform="scale(1 1) rotate(0) translate(4 288.62)">
<title>G</title>
<!-- n2 -->
<g id="node1" class="node">
<title>n2</title>
<path fill="none" stroke="#8b8b8b" stroke-width="1.2" d="M120.8,-284.62C120.8,-284.62 81.2,-284.62 81.2,-284.62 77.6,-284.62 74,-281.02 74,-277.42 74,-277.42 74,-270.22 74,-270.22 74,-266.62 77.6,-263.02 81.2,-263.02 81.2,-263.02 120.8,-263.02 120.8,-263.02 124.4,-263.02 128,-266.62 128,-270.22 128,-270.22 128,-277.42 128,-277.42 128,-281.02 124.4,-284.62 120.8,-284.62"/>
<text text-anchor="middle" x="101" y="-269.54" font-family="Helvetica,Arial,sans-serif" font-size="12.00" fill="#8b8b8b">x</text>
</g>
<!-- n4 -->
<g id="node3" class="node">
<title>n4</title>
<ellipse fill="none" stroke="#8b8b8b" stroke-width="1.2" cx="101" cy="-223.87" rx="14.15" ry="14.15"/>
<text text-anchor="middle" x="101" y="-219.59" font-family="Helvetica,Arial,sans-serif" font-size="12.00" fill="#8b8b8b">*</text>
</g>
<!-- n2&#45;&gt;n4 -->
<g id="edge1" class="edge">
<title>n2&#45;&gt;n4</title>
<path fill="none" stroke="#8b8b8b" stroke-width="1.2" d="M101,-262.65C101,-258.36 101,-253.18 101,-248.04"/>
<polygon fill="#8b8b8b" stroke="#8b8b8b" stroke-width="1.2" points="103.8,-248.3 101,-240.3 98.2,-248.3 103.8,-248.3"/>
</g>
<!-- n3 -->
<g id="node2" class="node">
<title>n3</title>
<path fill="none" stroke="#8b8b8b" stroke-width="1.2" d="M211.8,-284.62C211.8,-284.62 172.2,-284.62 172.2,-284.62 168.6,-284.62 165,-281.02 165,-277.42 165,-277.42 165,-270.22 165,-270.22 165,-266.62 168.6,-263.02 172.2,-263.02 172.2,-263.02 211.8,-263.02 211.8,-263.02 215.4,-263.02 219,-266.62 219,-270.22 219,-270.22 219,-277.42 219,-277.42 219,-281.02 215.4,-284.62 211.8,-284.62"/>
<text text-anchor="middle" x="192" y="-269.54" font-family="Helvetica,Arial,sans-serif" font-size="12.00" fill="#8b8b8b">y</text>
</g>
<!-- n3&#45;&gt;n4 -->
<g id="edge2" class="edge">
<title>n3&#45;&gt;n4</title>
<path fill="none" stroke="#8b8b8b" stroke-width="1.2" d="M172.7,-262.65C157.7,-254.74 136.93,-243.8 121.61,-235.73"/>
<polygon fill="#8b8b8b" stroke="#8b8b8b" stroke-width="1.2" points="123.29,-233.45 114.9,-232.19 120.68,-238.4 123.29,-233.45"/>
</g>
<!-- n8 -->
<g id="node7" class="node">
<title>n8</title>
<ellipse fill="none" stroke="#8b8b8b" stroke-width="1.2" cx="188" cy="-116.47" rx="14.15" ry="14.15"/>
<text text-anchor="middle" x="188" y="-112.19" font-family="Helvetica,Arial,sans-serif" font-size="12.00" fill="#8b8b8b">*</text>
</g>
<!-- n3&#45;&gt;n8 -->
<g id="edge7" class="edge">
<title>n3&#45;&gt;n8</title>
<path fill="none" stroke="#8b8b8b" stroke-width="1.2" d="M191.74,-262.62C191.1,-238.03 189.48,-174.94 188.6,-140.59"/>
<polygon fill="#8b8b8b" stroke="#8b8b8b" stroke-width="1.2" points="191.4,-140.67 188.39,-132.75 185.8,-140.82 191.4,-140.67"/>
</g>
<!-- n9 -->
<g id="node8" class="node">
<title>n9</title>
<ellipse fill="none" stroke="#8b8b8b" stroke-width="1.2" cx="209" cy="-61.56" rx="14.96" ry="14.96"/>
<text text-anchor="middle" x="209" y="-57.28" font-family="Helvetica,Arial,sans-serif" font-size="12.00" fill="#8b8b8b">+</text>
</g>
<!-- n3&#45;&gt;n9 -->
<g id="edge9" class="edge">
<title>n3&#45;&gt;n9</title>
<path fill="none" stroke="#8b8b8b" stroke-width="1.2" d="M196.7,-262.71C199.64,-255.89 203.2,-246.6 205,-238.02 216.17,-184.78 213.71,-120.46 211.19,-86.41"/>
<polygon fill="#8b8b8b" stroke="#8b8b8b" stroke-width="1.2" points="214,-86.42 210.57,-78.67 208.42,-86.87 214,-86.42"/>
</g>
<!-- n5 -->
<g id="node4" class="node">
<title>n5</title>
<ellipse fill="none" stroke="#8b8b8b" stroke-width="1.2" stroke-opacity="0.250980" cx="27" cy="-170.57" rx="27" ry="14.15"/>
<text text-anchor="middle" x="27" y="-166.3" font-family="Helvetica,Arial,sans-serif" font-size="12.00" fill="#8b8b8b" fill-opacity="0.250980">sin</text>
</g>
<!-- n4&#45;&gt;n5 -->
<g id="edge3" class="edge">
<title>n4&#45;&gt;n5</title>
<path fill="none" stroke="#8b8b8b" stroke-width="1.2" stroke-opacity="0.250980" d="M89.76,-215.08C79.38,-207.88 63.63,-196.96 50.51,-187.87"/>
<polygon fill="#8b8b8b" fill-opacity="0.250980" stroke="#8b8b8b" stroke-width="1.2" stroke-opacity="0.250980" points="52.41,-185.78 44.24,-183.52 49.22,-190.38 52.41,-185.78"/>
</g>
<!-- n6 -->
<g id="node5" class="node">
<title>n6</title>
<ellipse fill="none" stroke="#8b8b8b" stroke-width="1.2" stroke-opacity="0.250980" cx="55" cy="-116.47" rx="14.96" ry="14.96"/>
<text text-anchor="middle" x="55" y="-112.19" font-family="Helvetica,Arial,sans-serif" font-size="12.00" fill="#8b8b8b" fill-opacity="0.250980">+</text>
</g>
<!-- n4&#45;&gt;n6 -->
<g id="edge4" class="edge">
<title>n4&#45;&gt;n6</title>
<path fill="none" stroke="#8b8b8b" stroke-width="1.2" stroke-opacity="0.250980" d="M95.54,-210.36C87.91,-192.88 73.94,-160.88 64.57,-139.38"/>
<polygon fill="#8b8b8b" fill-opacity="0.250980" stroke="#8b8b8b" stroke-width="1.2" stroke-opacity="0.250980" points="67.23,-138.49 61.47,-132.28 62.1,-140.73 67.23,-138.49"/>
</g>
<!-- n7 -->
<g id="node6" class="node">
<title>n7</title>
<ellipse fill="none" stroke="#8b8b8b" stroke-width="1.2" cx="137" cy="-170.57" rx="27" ry="14.15"/>
<text text-anchor="middle" x="137" y="-166.3" font-family="Helvetica,Arial,sans-serif" font-size="12.00" fill="#8b8b8b">cos</text>
</g>
<!-- n4&#45;&gt;n7 -->
<g id="edge6" class="edge">
<title>n4&#45;&gt;n7</title>
<path fill="none" stroke="#8b8b8b" stroke-width="1.2" d="M108.81,-211.74C112.91,-205.89 118.07,-198.55 122.84,-191.74"/>
<polygon fill="#8b8b8b" stroke="#8b8b8b" stroke-width="1.2" points="124.85,-193.77 127.15,-185.61 120.26,-190.55 124.85,-193.77"/>
</g>
<!-- n5&#45;&gt;n6 -->
<g id="edge5" class="edge">
<title>n5&#45;&gt;n6</title>
<path fill="none" stroke="#8b8b8b" stroke-width="1.2" stroke-opacity="0.250980" d="M34.07,-156.42C36.98,-150.99 40.44,-144.57 43.69,-138.51"/>
<polygon fill="#8b8b8b" fill-opacity="0.250980" stroke="#8b8b8b" stroke-width="1.2" stroke-opacity="0.250980" points="46.05,-140.04 47.37,-131.67 41.11,-137.39 46.05,-140.04"/>
</g>
<!-- out0 -->
<g id="node9" class="node">
<title>out0</title>
<path fill="none" stroke="#8b8b8b" stroke-width="1.2" stroke-opacity="0.250980" d="M74.8,-72.36C74.8,-72.36 35.2,-72.36 35.2,-72.36 31.6,-72.36 28,-68.76 28,-65.16 28,-65.16 28,-57.96 28,-57.96 28,-54.36 31.6,-50.76 35.2,-50.76 35.2,-50.76 74.8,-50.76 74.8,-50.76 78.4,-50.76 82,-54.36 82,-57.96 82,-57.96 82,-65.16 82,-65.16 82,-68.76 78.4,-72.36 74.8,-72.36"/>
<text text-anchor="start" x="53.12" y="-58.28" font-family="Helvetica,Arial,sans-serif" font-weight="bold" font-size="12.00" fill="#8b8b8b" fill-opacity="0.250980">f</text>
</g>
<!-- n6&#45;&gt;out0 -->
<g id="edge11" class="edge">
<title>n6&#45;&gt;out0</title>
<path fill="none" stroke="#8b8b8b" stroke-width="1.2" stroke-opacity="0.250980" d="M55,-101.29C55,-95.48 55,-88.66 55,-82.38"/>
<polygon fill="#8b8b8b" fill-opacity="0.250980" stroke="#8b8b8b" stroke-width="1.2" stroke-opacity="0.250980" points="57.8,-82.4 55,-74.4 52.2,-82.4 57.8,-82.4"/>
</g>
<!-- n7&#45;&gt;n8 -->
<g id="edge8" class="edge">
<title>n7&#45;&gt;n8</title>
<path fill="none" stroke="#8b8b8b" stroke-width="1.2" d="M148.83,-157.49C155.68,-150.49 164.39,-141.58 171.87,-133.95"/>
<polygon fill="#8b8b8b" stroke="#8b8b8b" stroke-width="1.2" points="173.42,-136.36 177.02,-128.69 169.42,-132.45 173.42,-136.36"/>
</g>
<!-- n8&#45;&gt;n9 -->
<g id="edge10" class="edge">
<title>n8&#45;&gt;n9</title>
<path fill="none" stroke="#8b8b8b" stroke-width="1.2" d="M192.98,-102.93C195.16,-97.42 197.79,-90.8 200.28,-84.52"/>
<polygon fill="#8b8b8b" stroke="#8b8b8b" stroke-width="1.2" points="202.75,-85.9 203.1,-77.43 197.54,-83.83 202.75,-85.9"/>
</g>
<!-- out1 -->
<g id="node10" class="node">
<title>out1</title>
<path fill="none" stroke="#8b8b8b" stroke-width="1.2" d="M228.8,-21.6C228.8,-21.6 189.2,-21.6 189.2,-21.6 185.6,-21.6 182,-18 182,-14.4 182,-14.4 182,-7.2 182,-7.2 182,-3.6 185.6,0 189.2,0 189.2,0 228.8,0 228.8,0 232.4,0 236,-3.6 236,-7.2 236,-7.2 236,-14.4 236,-14.4 236,-18 232.4,-21.6 228.8,-21.6"/>
<text text-anchor="start" x="194.75" y="-7.52" font-family="Helvetica,Arial,sans-serif" font-weight="bold" font-size="12.00" fill="#8b8b8b">df/dx</text>
</g>
<!-- n9&#45;&gt;out1 -->
<g id="edge12" class="edge">
<title>n9&#45;&gt;out1</title>
<path fill="none" stroke="#8b8b8b" stroke-width="1.2" d="M209,-46.19C209,-41.59 209,-36.41 209,-31.49"/>
<polygon fill="#8b8b8b" stroke="#8b8b8b" stroke-width="1.2" points="211.8,-31.86 209,-23.86 206.2,-31.86 211.8,-31.86"/>
</g>
</g>
</svg>
