<?xml version="1.0" encoding="UTF-8" standalone="no"?>
<!DOCTYPE svg PUBLIC "-//W3C//DTD SVG 1.1//EN"
 "http://www.w3.org/Graphics/SVG/1.1/DTD/svg11.dtd">
<!-- Generated by graphviz version 16.1.0 (20260904.0139)
 -->
<!-- Title: G Pages: 1 -->
<svg width="821pt" height="567pt"
 viewBox="0.00 0.00 821.00 567.00" xmlns="http://www.w3.org/2000/svg" xmlns:xlink="http://www.w3.org/1999/xlink">
<g id="graph0" class="graph" transform="scale(1 1) rotate(0) translate(4 563.48)">
<title>G</title>
<g id="clust1" class="cluster">
<title>cluster_0</title>
<path fill="none" stroke="#808080" stroke-width="0.8" stroke-dasharray="5,2" d="M20,-230.92C20,-230.92 477,-230.92 477,-230.92 483,-230.92 489,-236.92 489,-242.92 489,-242.92 489,-539.48 489,-539.48 489,-545.48 483,-551.48 477,-551.48 477,-551.48 20,-551.48 20,-551.48 14,-551.48 8,-545.48 8,-539.48 8,-539.48 8,-242.92 8,-242.92 8,-236.92 14,-230.92 20,-230.92"/>
<text xml:space="preserve" text-anchor="middle" x="31" y="-537.03" font-family="Helvetica,Arial,sans-serif" font-size="11.00" fill="#808080">prolog</text>
</g>
<g id="clust2" class="cluster">
<title>cluster_1</title>
<path fill="none" stroke="#808080" stroke-width="0.8" stroke-dasharray="5,2" d="M509,-38.6C509,-38.6 667,-38.6 667,-38.6 673,-38.6 679,-44.6 679,-50.6 679,-50.6 679,-385.72 679,-385.72 679,-391.72 673,-397.72 667,-397.72 667,-397.72 509,-397.72 509,-397.72 503,-397.72 497,-391.72 497,-385.72 497,-385.72 497,-50.6 497,-50.6 497,-44.6 503,-38.6 509,-38.6"/>
<text xml:space="preserve" text-anchor="middle" x="516.62" y="-383.27" font-family="Helvetica,Arial,sans-serif" font-size="11.00" fill="#808080">main</text>
</g>
<!-- in0 -->
<g id="node1" class="node">
<title>in0</title>
<path fill="#22c55e" fill-opacity="0.149020" stroke="#22c55e" stroke-width="1.2" d="M182.8,-523.48C182.8,-523.48 143.2,-523.48 143.2,-523.48 139.6,-523.48 136,-519.88 136,-516.28 136,-516.28 136,-509.08 136,-509.08 136,-505.48 139.6,-501.88 143.2,-501.88 143.2,-501.88 182.8,-501.88 182.8,-501.88 186.4,-501.88 190,-505.48 190,-509.08 190,-509.08 190,-516.28 190,-516.28 190,-519.88 186.4,-523.48 182.8,-523.48"/>
<text xml:space="preserve" text-anchor="middle" x="163" y="-508.23" font-family="Helvetica,Arial,sans-serif" font-size="11.00" fill="#808080">a00</text>
</g>
<!-- o3 -->
<g id="node11" class="node">
<title>o3</title>
<ellipse fill="#808080" fill-opacity="0.149020" stroke="#808080" stroke-width="1.2" cx="52" cy="-358.92" rx="27" ry="11.54"/>
<text xml:space="preserve" text-anchor="middle" x="52" y="-354.47" font-family="Helvetica,Arial,sans-serif" font-size="11.00" fill="#808080">abs</text>
</g>
<!-- in0&#45;&gt;o3 -->
<g id="edge4" class="edge">
<title>in0&#45;&gt;o3</title>
<path fill="none" stroke="#808080" stroke-width="0.9" d="M135.56,-504.96C101.8,-494.95 46.58,-472.45 27,-428.8 19.07,-411.13 29.42,-390.12 39.1,-375.99"/>
<polygon fill="#808080" stroke="#808080" stroke-width="0.9" points="40.54,-377.58 42.36,-371.48 37.14,-375.11 40.54,-377.58"/>
</g>
<!-- o11 -->
<g id="node19" class="node">
<title>o11</title>
<ellipse fill="#808080" fill-opacity="0.149020" stroke="#808080" stroke-width="1.2" cx="333" cy="-465.34" rx="27" ry="11.54"/>
<text xml:space="preserve" text-anchor="middle" x="333" y="-460.89" font-family="Helvetica,Arial,sans-serif" font-size="11.00" fill="#808080">^&#45;1</text>
</g>
<!-- in0&#45;&gt;o11 -->
<g id="edge16" class="edge">
<title>in0&#45;&gt;o11</title>
<path fill="none" stroke="#808080" stroke-width="0.9" d="M190.53,-504.8C217.66,-497.95 260.28,-487.02 297,-476.88 299.47,-476.2 302.03,-475.48 304.59,-474.75"/>
<polygon fill="#808080" stroke="#808080" stroke-width="0.9" points="304.84,-476.86 310.02,-473.18 303.67,-472.83 304.84,-476.86"/>
</g>
<!-- in1 -->
<g id="node2" class="node">
<title>in1</title>
<path fill="#22c55e" fill-opacity="0.149020" stroke="#22c55e" stroke-width="1.2" d="M401.8,-428.06C401.8,-428.06 362.2,-428.06 362.2,-428.06 358.6,-428.06 355,-424.46 355,-420.86 355,-420.86 355,-413.66 355,-413.66 355,-410.06 358.6,-406.46 362.2,-406.46 362.2,-406.46 401.8,-406.46 401.8,-406.46 405.4,-406.46 409,-410.06 409,-413.66 409,-413.66 409,-420.86 409,-420.86 409,-424.46 405.4,-428.06 401.8,-428.06"/>
<text xml:space="preserve" text-anchor="middle" x="382" y="-412.81" font-family="Helvetica,Arial,sans-serif" font-size="11.00" fill="#808080">a02</text>
</g>
<!-- o14 -->
<g id="node22" class="node">
<title>o14</title>
<path fill="#06b6d4" fill-opacity="0.149020" stroke="#06b6d4" stroke-width="1.2" d="M371.8,-369.72C371.8,-369.72 332.2,-369.72 332.2,-369.72 328.6,-369.72 325,-366.12 325,-362.52 325,-362.52 325,-355.32 325,-355.32 325,-351.72 328.6,-348.12 332.2,-348.12 332.2,-348.12 371.8,-348.12 371.8,-348.12 375.4,-348.12 379,-351.72 379,-355.32 379,-355.32 379,-362.52 379,-362.52 379,-366.12 375.4,-369.72 371.8,-369.72"/>
<text xml:space="preserve" text-anchor="middle" x="352" y="-354.47" font-family="Helvetica,Arial,sans-serif" font-size="11.00" fill="#808080">dot 2</text>
</g>
<!-- in1&#45;&gt;o14 -->
<g id="edge23" class="edge">
<title>in1&#45;&gt;o14</title>
<path fill="none" stroke="#808080" stroke-width="0.9" d="M376.5,-405.93C372.14,-397.75 365.97,-386.16 360.91,-376.66"/>
<polygon fill="#808080" stroke="#808080" stroke-width="0.9" points="362.78,-375.7 358.11,-371.39 359.07,-377.68 362.78,-375.7"/>
</g>
<!-- o20 -->
<g id="node31" class="node">
<title>o20</title>
<ellipse fill="#808080" fill-opacity="0.149020" stroke="#808080" stroke-width="1.2" cx="597" cy="-154.3" rx="11.54" ry="11.54"/>
<text xml:space="preserve" text-anchor="middle" x="597" y="-149.85" font-family="Helvetica,Arial,sans-serif" font-size="11.00" fill="#808080">*</text>
</g>
<!-- in1&#45;&gt;o20 -->
<g id="edge36" class="edge">
<title>in1&#45;&gt;o20</title>
<path fill="none" stroke="#808080" stroke-width="0.9" d="M409.35,-407.48C412.25,-406.78 415.17,-406.17 418,-405.72 432.38,-403.44 668.85,-407.09 680,-397.72 711.97,-370.85 699,-347.46 699,-305.69 699,-305.69 699,-305.69 699,-249.46 699,-203.94 643.49,-174.34 614.37,-161.94"/>
<polygon fill="#808080" stroke="#808080" stroke-width="0.9" points="615.52,-160.15 609.18,-159.81 613.93,-164.03 615.52,-160.15"/>
</g>
<!-- in2 -->
<g id="node3" class="node">
<title>in2</title>
<path fill="#22c55e" fill-opacity="0.149020" stroke="#22c55e" stroke-width="1.2" d="M314.8,-523.48C314.8,-523.48 275.2,-523.48 275.2,-523.48 271.6,-523.48 268,-519.88 268,-516.28 268,-516.28 268,-509.08 268,-509.08 268,-505.48 271.6,-501.88 275.2,-501.88 275.2,-501.88 314.8,-501.88 314.8,-501.88 318.4,-501.88 322,-505.48 322,-509.08 322,-509.08 322,-516.28 322,-516.28 322,-519.88 318.4,-523.48 314.8,-523.48"/>
<text xml:space="preserve" text-anchor="middle" x="295" y="-508.23" font-family="Helvetica,Arial,sans-serif" font-size="11.00" fill="#808080">a11</text>
</g>
<!-- o7 -->
<g id="node15" class="node">
<title>o7</title>
<ellipse fill="#808080" fill-opacity="0.149020" stroke="#808080" stroke-width="1.2" cx="117" cy="-465.34" rx="27" ry="11.54"/>
<text xml:space="preserve" text-anchor="middle" x="117" y="-460.89" font-family="Helvetica,Arial,sans-serif" font-size="11.00" fill="#808080">abs</text>
</g>
<!-- in2&#45;&gt;o7 -->
<g id="edge10" class="edge">
<title>in2&#45;&gt;o7</title>
<path fill="none" stroke="#808080" stroke-width="0.9" d="M267.42,-505.31C238.74,-498.59 192.59,-487.52 153,-476.88 150.53,-476.22 147.97,-475.51 145.4,-474.79"/>
<polygon fill="#808080" stroke="#808080" stroke-width="0.9" points="146.31,-472.86 139.97,-473.23 145.16,-476.9 146.31,-472.86"/>
</g>
<!-- o10 -->
<g id="node18" class="node">
<title>o10</title>
<ellipse fill="#808080" fill-opacity="0.149020" stroke="#808080" stroke-width="1.2" cx="405" cy="-465.34" rx="27" ry="11.54"/>
<text xml:space="preserve" text-anchor="middle" x="405" y="-460.89" font-family="Helvetica,Arial,sans-serif" font-size="11.00" fill="#808080">^&#45;1</text>
</g>
<!-- in2&#45;&gt;o10 -->
<g id="edge15" class="edge">
<title>in2&#45;&gt;o10</title>
<path fill="none" stroke="#808080" stroke-width="0.9" d="M319.96,-501.4C337.76,-494.06 361.6,-484.23 379.52,-476.85"/>
<polygon fill="#808080" stroke="#808080" stroke-width="0.9" points="380.3,-478.8 385.05,-474.57 378.7,-474.91 380.3,-478.8"/>
</g>
<!-- in3 -->
<g id="node4" class="node">
<title>in3</title>
<path fill="#22c55e" fill-opacity="0.149020" stroke="#22c55e" stroke-width="1.2" d="M473.8,-428.06C473.8,-428.06 434.2,-428.06 434.2,-428.06 430.6,-428.06 427,-424.46 427,-420.86 427,-420.86 427,-413.66 427,-413.66 427,-410.06 430.6,-406.46 434.2,-406.46 434.2,-406.46 473.8,-406.46 473.8,-406.46 477.4,-406.46 481,-410.06 481,-413.66 481,-413.66 481,-420.86 481,-420.86 481,-424.46 477.4,-428.06 473.8,-428.06"/>
<text xml:space="preserve" text-anchor="middle" x="454" y="-412.81" font-family="Helvetica,Arial,sans-serif" font-size="11.00" fill="#808080">a12</text>
</g>
<!-- in3&#45;&gt;o14 -->
<g id="edge24" class="edge">
<title>in3&#45;&gt;o14</title>
<path fill="none" stroke="#808080" stroke-width="0.9" d="M426.5,-408.14C423.63,-407.31 420.76,-406.5 418,-405.72 404.71,-402.01 399.87,-404.76 388,-397.72 378.56,-392.13 369.99,-383.36 363.59,-375.68"/>
<polygon fill="#808080" stroke="#808080" stroke-width="0.9" points="365.36,-374.54 359.98,-371.16 362.08,-377.16 365.36,-374.54"/>
</g>
<!-- o23 -->
<g id="node34" class="node">
<title>o23</title>
<ellipse fill="#808080" fill-opacity="0.149020" stroke="#808080" stroke-width="1.2" cx="659" cy="-154.3" rx="11.54" ry="11.54"/>
<text xml:space="preserve" text-anchor="middle" x="659" y="-149.85" font-family="Helvetica,Arial,sans-serif" font-size="11.00" fill="#808080">*</text>
</g>
<!-- in3&#45;&gt;o23 -->
<g id="edge42" class="edge">
<title>in3&#45;&gt;o23</title>
<path fill="none" stroke="#808080" stroke-width="0.9" d="M481.37,-416.08C544.36,-415.41 695.49,-412.28 713,-397.72 745.5,-370.7 737,-347.96 737,-305.69 737,-305.69 737,-305.69 737,-249.46 737,-221.31 730.89,-212.58 713,-190.84 702.98,-178.67 687.71,-169.16 675.95,-163.05"/>
<polygon fill="#808080" stroke="#808080" stroke-width="0.9" points="677.04,-161.24 670.73,-160.46 675.17,-165 677.04,-161.24"/>
</g>
<!-- in4 -->
<g id="node5" class="node">
<title>in4</title>
<path fill="#22c55e" fill-opacity="0.149020" stroke="#22c55e" stroke-width="1.2" d="M208.8,-476.14C208.8,-476.14 169.2,-476.14 169.2,-476.14 165.6,-476.14 162,-472.54 162,-468.94 162,-468.94 162,-461.74 162,-461.74 162,-458.14 165.6,-454.54 169.2,-454.54 169.2,-454.54 208.8,-454.54 208.8,-454.54 212.4,-454.54 216,-458.14 216,-461.74 216,-461.74 216,-468.94 216,-468.94 216,-472.54 212.4,-476.14 208.8,-476.14"/>
<text xml:space="preserve" text-anchor="middle" x="189" y="-460.89" font-family="Helvetica,Arial,sans-serif" font-size="11.00" fill="#808080">a20</text>
</g>
<!-- o0 -->
<g id="node8" class="node">
<title>o0</title>
<ellipse fill="#808080" fill-opacity="0.149020" stroke="#808080" stroke-width="1.2" cx="63" cy="-417.26" rx="27" ry="11.54"/>
<text xml:space="preserve" text-anchor="middle" x="63" y="-412.81" font-family="Helvetica,Arial,sans-serif" font-size="11.00" fill="#808080">abs</text>
</g>
<!-- in4&#45;&gt;o0 -->
<g id="edge1" class="edge">
<title>in4&#45;&gt;o0</title>
<path fill="none" stroke="#808080" stroke-width="0.9" d="M161.66,-454.34C140.33,-446.54 110.87,-435.77 89.71,-428.03"/>
<polygon fill="#808080" stroke="#808080" stroke-width="0.9" points="90.51,-426.09 84.15,-426 89.06,-430.03 90.51,-426.09"/>
</g>
<!-- o13 -->
<g id="node21" class="node">
<title>o13</title>
<ellipse fill="#808080" fill-opacity="0.149020" stroke="#808080" stroke-width="1.2" cx="284" cy="-417.26" rx="11.54" ry="11.54"/>
<text xml:space="preserve" text-anchor="middle" x="284" y="-412.81" font-family="Helvetica,Arial,sans-serif" font-size="11.00" fill="#808080">*</text>
</g>
<!-- in4&#45;&gt;o13 -->
<g id="edge19" class="edge">
<title>in4&#45;&gt;o13</title>
<path fill="none" stroke="#808080" stroke-width="0.9" d="M210.08,-454.12C227.3,-445.76 251.31,-434.12 267.24,-426.39"/>
<polygon fill="#808080" stroke="#808080" stroke-width="0.9" points="267.82,-428.45 272.3,-423.94 265.99,-424.67 267.82,-428.45"/>
</g>
<!-- in5 -->
<g id="node6" class="node">
<title>in5</title>
<path fill="#22c55e" fill-opacity="0.149020" stroke="#22c55e" stroke-width="1.2" d="M280.8,-476.14C280.8,-476.14 241.2,-476.14 241.2,-476.14 237.6,-476.14 234,-472.54 234,-468.94 234,-468.94 234,-461.74 234,-461.74 234,-458.14 237.6,-454.54 241.2,-454.54 241.2,-454.54 280.8,-454.54 280.8,-454.54 284.4,-454.54 288,-458.14 288,-461.74 288,-461.74 288,-468.94 288,-468.94 288,-472.54 284.4,-476.14 280.8,-476.14"/>
<text xml:space="preserve" text-anchor="middle" x="261" y="-460.89" font-family="Helvetica,Arial,sans-serif" font-size="11.00" fill="#808080">a21</text>
</g>
<!-- o5 -->
<g id="node13" class="node">
<title>o5</title>
<ellipse fill="#808080" fill-opacity="0.149020" stroke="#808080" stroke-width="1.2" cx="207" cy="-417.26" rx="27" ry="11.54"/>
<text xml:space="preserve" text-anchor="middle" x="207" y="-412.81" font-family="Helvetica,Arial,sans-serif" font-size="11.00" fill="#808080">abs</text>
</g>
<!-- in5&#45;&gt;o5 -->
<g id="edge7" class="edge">
<title>in5&#45;&gt;o5</title>
<path fill="none" stroke="#808080" stroke-width="0.9" d="M249.02,-454.12C241.64,-447.83 232.08,-439.67 223.94,-432.72"/>
<polygon fill="#808080" stroke="#808080" stroke-width="0.9" points="225.54,-431.33 219.62,-429.03 222.82,-434.52 225.54,-431.33"/>
</g>
<!-- o12 -->
<g id="node20" class="node">
<title>o12</title>
<ellipse fill="#808080" fill-opacity="0.149020" stroke="#808080" stroke-width="1.2" cx="325" cy="-417.26" rx="11.54" ry="11.54"/>
<text xml:space="preserve" text-anchor="middle" x="325" y="-412.81" font-family="Helvetica,Arial,sans-serif" font-size="11.00" fill="#808080">*</text>
</g>
<!-- in5&#45;&gt;o12 -->
<g id="edge17" class="edge">
<title>in5&#45;&gt;o12</title>
<path fill="none" stroke="#808080" stroke-width="0.9" d="M275.2,-454.12C285.55,-446.67 299.53,-436.6 310.04,-429.03"/>
<polygon fill="#808080" stroke="#808080" stroke-width="0.9" points="311.03,-430.91 314.67,-425.7 308.58,-427.5 311.03,-430.91"/>
</g>
<!-- in6 -->
<g id="node7" class="node">
<title>in6</title>
<path fill="#22c55e" fill-opacity="0.149020" stroke="#22c55e" stroke-width="1.2" d="M443.8,-369.72C443.8,-369.72 404.2,-369.72 404.2,-369.72 400.6,-369.72 397,-366.12 397,-362.52 397,-362.52 397,-355.32 397,-355.32 397,-351.72 400.6,-348.12 404.2,-348.12 404.2,-348.12 443.8,-348.12 443.8,-348.12 447.4,-348.12 451,-351.72 451,-355.32 451,-355.32 451,-362.52 451,-362.52 451,-366.12 447.4,-369.72 443.8,-369.72"/>
<text xml:space="preserve" text-anchor="middle" x="424" y="-354.47" font-family="Helvetica,Arial,sans-serif" font-size="11.00" fill="#808080">a22</text>
</g>
<!-- o15 -->
<g id="node23" class="node">
<title>o15</title>
<ellipse fill="#808080" fill-opacity="0.149020" stroke="#808080" stroke-width="1.2" cx="424" cy="-304.69" rx="11.54" ry="11.54"/>
<text xml:space="preserve" text-anchor="middle" x="424" y="-300.24" font-family="Helvetica,Arial,sans-serif" font-size="11.00" fill="#808080">&#45;</text>
</g>
<!-- in6&#45;&gt;o15 -->
<g id="edge25" class="edge">
<title>in6&#45;&gt;o15</title>
<path fill="none" stroke="#808080" stroke-width="0.9" d="M424,-347.6C424,-340.78 424,-331.64 424,-323.64"/>
<polygon fill="#808080" stroke="#808080" stroke-width="0.9" points="426.1,-324.07 424,-318.07 421.9,-324.07 426.1,-324.07"/>
</g>
<!-- o2 -->
<g id="node10" class="node">
<title>o2</title>
<ellipse fill="#808080" fill-opacity="0.149020" stroke="#808080" stroke-width="1.2" cx="118" cy="-358.92" rx="11.54" ry="11.54"/>
<text xml:space="preserve" text-anchor="middle" x="118" y="-354.47" font-family="Helvetica,Arial,sans-serif" font-size="11.00" fill="#808080">*</text>
</g>
<!-- o0&#45;&gt;o2 -->
<g id="edge2" class="edge">
<title>o0&#45;&gt;o2</title>
<path fill="none" stroke="#808080" stroke-width="0.9" d="M77.01,-406.87C80.74,-404.11 84.66,-400.96 88,-397.72 95.15,-390.8 102.12,-382.17 107.54,-374.9"/>
<polygon fill="#808080" stroke="#808080" stroke-width="0.9" points="109.07,-376.37 110.9,-370.29 105.67,-373.9 109.07,-376.37"/>
</g>
<!-- o1 -->
<g id="node9" class="node">
<title>o1</title>
<polygon fill="#94a3b8" fill-opacity="0.149020" stroke="#94a3b8" stroke-width="1.2" points="162,-428.06 108,-428.06 108,-406.46 162,-406.46 162,-428.06"/>
<text xml:space="preserve" text-anchor="middle" x="135" y="-412.81" font-family="Helvetica,Arial,sans-serif" font-size="11.00" fill="#808080">0.001</text>
</g>
<!-- o1&#45;&gt;o2 -->
<g id="edge3" class="edge">
<title>o1&#45;&gt;o2</title>
<path fill="none" stroke="#808080" stroke-width="0.9" d="M131.88,-405.93C129.49,-398.01 126.14,-386.89 123.32,-377.57"/>
<polygon fill="#808080" stroke="#808080" stroke-width="0.9" points="125.35,-377.02 121.61,-371.88 121.33,-378.23 125.35,-377.02"/>
</g>
<!-- o6 -->
<g id="node14" class="node">
<title>o6</title>
<ellipse fill="#808080" fill-opacity="0.149020" stroke="#808080" stroke-width="1.2" cx="189" cy="-358.92" rx="11.54" ry="11.54"/>
<text xml:space="preserve" text-anchor="middle" x="189" y="-354.47" font-family="Helvetica,Arial,sans-serif" font-size="11.00" fill="#808080">*</text>
</g>
<!-- o1&#45;&gt;o6 -->
<g id="edge8" class="edge">
<title>o1&#45;&gt;o6</title>
<path fill="none" stroke="#808080" stroke-width="0.9" d="M144.9,-405.93C153.74,-396.71 166.73,-383.16 176.32,-373.15"/>
<polygon fill="#808080" stroke="#808080" stroke-width="0.9" points="177.68,-374.77 180.31,-368.99 174.65,-371.87 177.68,-374.77"/>
</g>
<!-- o4 -->
<g id="node12" class="node">
<title>o4</title>
<ellipse fill="#a855f7" fill-opacity="0.149020" stroke="#a855f7" stroke-width="1.2" cx="118" cy="-304.69" rx="17.69" ry="17.69"/>
<text xml:space="preserve" text-anchor="middle" x="118" y="-300.24" font-family="Helvetica,Arial,sans-serif" font-size="11.00" fill="#808080">&gt;=</text>
</g>
<!-- o2&#45;&gt;o4 -->
<g id="edge6" class="edge">
<title>o2&#45;&gt;o4</title>
<path fill="none" stroke="#808080" stroke-width="0.9" d="M118,-346.85C118,-341.96 118,-336.01 118,-330.17"/>
<polygon fill="#808080" stroke="#808080" stroke-width="0.9" points="120.1,-330.28 118,-324.28 115.9,-330.28 120.1,-330.28"/>
</g>
<!-- o3&#45;&gt;o4 -->
<g id="edge5" class="edge">
<title>o3&#45;&gt;o4</title>
<path fill="none" stroke="#808080" stroke-width="0.9" d="M64.41,-348.1C74.08,-340.45 87.67,-329.69 98.75,-320.93"/>
<polygon fill="#808080" stroke="#808080" stroke-width="0.9" points="99.8,-322.77 103.21,-317.4 97.2,-319.48 99.8,-322.77"/>
</g>
<!-- o9 -->
<g id="node17" class="node">
<title>o9</title>
<path fill="#06b6d4" fill-opacity="0.149020" stroke="#06b6d4" stroke-width="1.2" d="M164.8,-261.26C164.8,-261.26 125.2,-261.26 125.2,-261.26 121.6,-261.26 118,-257.66 118,-254.06 118,-254.06 118,-246.86 118,-246.86 118,-243.26 121.6,-239.66 125.2,-239.66 125.2,-239.66 164.8,-239.66 164.8,-239.66 168.4,-239.66 172,-243.26 172,-246.86 172,-246.86 172,-254.06 172,-254.06 172,-257.66 168.4,-261.26 164.8,-261.26"/>
<text xml:space="preserve" text-anchor="middle" x="145" y="-246.01" font-family="Helvetica,Arial,sans-serif" font-size="11.00" fill="#808080">min</text>
</g>
<!-- o4&#45;&gt;o9 -->
<g id="edge14" class="edge">
<title>o4&#45;&gt;o9</title>
<path fill="none" stroke="#808080" stroke-width="0.9" d="M125.95,-288.3C129.27,-281.89 133.12,-274.44 136.49,-267.92"/>
<polygon fill="#808080" stroke="#808080" stroke-width="0.9" points="138.15,-269.29 139.04,-263 134.42,-267.36 138.15,-269.29"/>
</g>
<!-- o5&#45;&gt;o6 -->
<g id="edge9" class="edge">
<title>o5&#45;&gt;o6</title>
<path fill="none" stroke="#808080" stroke-width="0.9" d="M203.53,-405.4C200.98,-397.43 197.47,-386.43 194.54,-377.25"/>
<polygon fill="#808080" stroke="#808080" stroke-width="0.9" points="196.58,-376.75 192.75,-371.67 192.58,-378.02 196.58,-376.75"/>
</g>
<!-- o8 -->
<g id="node16" class="node">
<title>o8</title>
<ellipse fill="#a855f7" fill-opacity="0.149020" stroke="#a855f7" stroke-width="1.2" cx="189" cy="-304.69" rx="17.69" ry="17.69"/>
<text xml:space="preserve" text-anchor="middle" x="189" y="-300.24" font-family="Helvetica,Arial,sans-serif" font-size="11.00" fill="#808080">&gt;=</text>
</g>
<!-- o6&#45;&gt;o8 -->
<g id="edge12" class="edge">
<title>o6&#45;&gt;o8</title>
<path fill="none" stroke="#808080" stroke-width="0.9" d="M189,-346.85C189,-341.96 189,-336.01 189,-330.17"/>
<polygon fill="#808080" stroke="#808080" stroke-width="0.9" points="191.1,-330.28 189,-324.28 186.9,-330.28 191.1,-330.28"/>
</g>
<!-- o7&#45;&gt;o8 -->
<g id="edge11" class="edge">
<title>o7&#45;&gt;o8</title>
<path fill="none" stroke="#808080" stroke-width="0.9" d="M138.69,-457.94C143.4,-456.56 148.37,-455.13 153,-453.8 192.92,-442.42 217.88,-461.85 243,-428.8 268.58,-395.15 230.94,-347.49 206.72,-322.49"/>
<polygon fill="#808080" stroke="#808080" stroke-width="0.9" points="208.46,-321.26 202.75,-318.48 205.48,-324.22 208.46,-321.26"/>
</g>
<!-- o8&#45;&gt;o9 -->
<g id="edge13" class="edge">
<title>o8&#45;&gt;o9</title>
<path fill="none" stroke="#808080" stroke-width="0.9" d="M177.9,-290.51C171.89,-283.38 164.44,-274.53 158.14,-267.06"/>
<polygon fill="#808080" stroke="#808080" stroke-width="0.9" points="159.95,-265.95 154.48,-262.71 156.74,-268.65 159.95,-265.95"/>
</g>
<!-- r3 -->
<g id="node40" class="node">
<title>r3</title>
<path fill="#ef4444" fill-opacity="0.149020" stroke="#ef4444" stroke-width="1.2" d="M164.8,-21.6C164.8,-21.6 125.2,-21.6 125.2,-21.6 121.6,-21.6 118,-18 118,-14.4 118,-14.4 118,-7.2 118,-7.2 118,-3.6 121.6,0 125.2,0 125.2,0 164.8,0 164.8,0 168.4,0 172,-3.6 172,-7.2 172,-7.2 172,-14.4 172,-14.4 172,-18 168.4,-21.6 164.8,-21.6"/>
<text xml:space="preserve" text-anchor="middle" x="145" y="-6.35" font-family="Helvetica,Arial,sans-serif" font-size="11.00" fill="#808080">pivots ok</text>
</g>
<!-- o9&#45;&gt;r3 -->
<g id="edge51" class="edge">
<title>o9&#45;&gt;r3</title>
<path fill="none" stroke="#808080" stroke-width="0.9" d="M145,-239.29C145,-222.02 145,-185.87 145,-155.3 145,-155.3 145,-155.3 145,-105.22 145,-78.82 145,-48.23 145,-29.45"/>
<polygon fill="#808080" stroke="#808080" stroke-width="0.9" points="147.1,-29.53 145,-23.53 142.9,-29.53 147.1,-29.53"/>
</g>
<!-- o10&#45;&gt;o12 -->
<g id="edge18" class="edge">
<title>o10&#45;&gt;o12</title>
<path fill="none" stroke="#808080" stroke-width="0.9" d="M389.58,-455.46C375.56,-447.38 354.97,-435.52 340.83,-427.38"/>
<polygon fill="#808080" stroke="#808080" stroke-width="0.9" points="342.26,-425.78 336.01,-424.61 340.16,-429.42 342.26,-425.78"/>
</g>
<!-- o25 -->
<g id="node36" class="node">
<title>o25</title>
<ellipse fill="#808080" fill-opacity="0.149020" stroke="#808080" stroke-width="1.2" cx="659" cy="-58.14" rx="11.54" ry="11.54"/>
<text xml:space="preserve" text-anchor="middle" x="659" y="-53.69" font-family="Helvetica,Arial,sans-serif" font-size="11.00" fill="#808080">*</text>
</g>
<!-- o10&#45;&gt;o25 -->
<g id="edge46" class="edge">
<title>o10&#45;&gt;o25</title>
<path fill="none" stroke="#3b82f6" stroke-width="0.9" stroke-dasharray="5,2" d="M432.07,-463.51C514.89,-460.74 760.99,-450.72 789,-428.8 814.53,-408.83 813,-392.34 813,-359.92 813,-359.92 813,-359.92 813,-153.3 813,-125.15 810.08,-113.34 789,-94.68 757.45,-66.76 705.96,-60.53 678.2,-59.3"/>
<polygon fill="#3b82f6" stroke="#3b82f6" stroke-width="0.9" points="678.46,-57.2 672.39,-59.11 678.32,-61.4 678.46,-57.2"/>
</g>
<!-- o11&#45;&gt;o13 -->
<g id="edge20" class="edge">
<title>o11&#45;&gt;o13</title>
<path fill="none" stroke="#808080" stroke-width="0.9" d="M322.61,-454.57C315.21,-447.62 305.22,-438.21 297.25,-430.72"/>
<polygon fill="#808080" stroke="#808080" stroke-width="0.9" points="298.91,-429.41 293.1,-426.83 296.04,-432.47 298.91,-429.41"/>
</g>
<!-- o22 -->
<g id="node33" class="node">
<title>o22</title>
<ellipse fill="#808080" fill-opacity="0.149020" stroke="#808080" stroke-width="1.2" cx="603" cy="-58.14" rx="11.54" ry="11.54"/>
<text xml:space="preserve" text-anchor="middle" x="603" y="-53.69" font-family="Helvetica,Arial,sans-serif" font-size="11.00" fill="#808080">*</text>
</g>
<!-- o11&#45;&gt;o22 -->
<g id="edge40" class="edge">
<title>o11&#45;&gt;o22</title>
<path fill="none" stroke="#3b82f6" stroke-width="0.9" stroke-dasharray="5,2" d="M354.2,-457.62C359.03,-456.24 364.17,-454.87 369,-453.8 459.42,-433.81 775,-452.53 775,-359.92 775,-359.92 775,-359.92 775,-153.3 775,-118.46 665.07,-79.15 620.98,-64.78"/>
<polygon fill="#3b82f6" stroke="#3b82f6" stroke-width="0.9" points="621.67,-62.8 615.32,-62.96 620.39,-66.79 621.67,-62.8"/>
</g>
<!-- o12&#45;&gt;o14 -->
<g id="edge22" class="edge">
<title>o12&#45;&gt;o14</title>
<path fill="none" stroke="#808080" stroke-width="0.9" d="M329.83,-406.19C333.73,-398.04 339.32,-386.39 343.91,-376.81"/>
<polygon fill="#808080" stroke="#808080" stroke-width="0.9" points="345.74,-377.84 346.44,-371.52 341.96,-376.02 345.74,-377.84"/>
</g>
<!-- o17 -->
<g id="node28" class="node">
<title>o17</title>
<path fill="#06b6d4" fill-opacity="0.149020" stroke="#06b6d4" stroke-width="1.2" d="M623.8,-315.49C623.8,-315.49 584.2,-315.49 584.2,-315.49 580.6,-315.49 577,-311.89 577,-308.29 577,-308.29 577,-301.09 577,-301.09 577,-297.49 580.6,-293.89 584.2,-293.89 584.2,-293.89 623.8,-293.89 623.8,-293.89 627.4,-293.89 631,-297.49 631,-301.09 631,-301.09 631,-308.29 631,-308.29 631,-311.89 627.4,-315.49 623.8,-315.49"/>
<text xml:space="preserve" text-anchor="middle" x="604" y="-300.24" font-family="Helvetica,Arial,sans-serif" font-size="11.00" fill="#808080">dot 2</text>
</g>
<!-- o12&#45;&gt;o17 -->
<g id="edge29" class="edge">
<title>o12&#45;&gt;o17</title>
<path fill="none" stroke="#3b82f6" stroke-width="0.9" stroke-dasharray="5,2" d="M334.5,-410.46C337.99,-408.61 342.06,-406.77 346,-405.72 377.62,-397.32 463.67,-412.22 493,-397.72 519.38,-384.68 513.63,-366.49 536,-347.38 548.58,-336.64 564.22,-326.84 577.33,-319.45"/>
<polygon fill="#3b82f6" stroke="#3b82f6" stroke-width="0.9" points="578.11,-321.42 582.35,-316.68 576.08,-317.74 578.11,-321.42"/>
</g>
<!-- o13&#45;&gt;o14 -->
<g id="edge21" class="edge">
<title>o13&#45;&gt;o14</title>
<path fill="none" stroke="#808080" stroke-width="0.9" d="M292.61,-409.13C302.99,-400.53 320.71,-385.85 334.1,-374.75"/>
<polygon fill="#808080" stroke="#808080" stroke-width="0.9" points="335.21,-376.56 338.49,-371.12 332.53,-373.33 335.21,-376.56"/>
</g>
<!-- o13&#45;&gt;o17 -->
<g id="edge28" class="edge">
<title>o13&#45;&gt;o17</title>
<path fill="none" stroke="#3b82f6" stroke-width="0.9" stroke-dasharray="5,2" d="M293.41,-410.23C296.65,-408.45 300.37,-406.72 304,-405.72 337.47,-396.53 429.89,-415 460,-397.72 483.2,-384.41 471.8,-363.7 493,-347.38 520.84,-325.95 535.34,-335.35 568,-322.38 570.74,-321.3 573.56,-320.11 576.37,-318.88"/>
<polygon fill="#3b82f6" stroke="#3b82f6" stroke-width="0.9" points="576.99,-320.9 581.61,-316.53 575.27,-317.07 576.99,-320.9"/>
</g>
<!-- o14&#45;&gt;o15 -->
<g id="edge26" class="edge">
<title>o14&#45;&gt;o15</title>
<path fill="none" stroke="#808080" stroke-width="0.9" d="M366.22,-347.6C378.62,-338.61 396.54,-325.61 409.12,-316.48"/>
<polygon fill="#808080" stroke="#808080" stroke-width="0.9" points="410.1,-318.37 413.72,-313.15 407.63,-314.97 410.1,-318.37"/>
</g>
<!-- o16 -->
<g id="node24" class="node">
<title>o16</title>
<ellipse fill="#808080" fill-opacity="0.149020" stroke="#808080" stroke-width="1.2" cx="439" cy="-250.46" rx="27" ry="11.54"/>
<text xml:space="preserve" text-anchor="middle" x="439" y="-246.01" font-family="Helvetica,Arial,sans-serif" font-size="11.00" fill="#808080">^&#45;1</text>
</g>
<!-- o15&#45;&gt;o16 -->
<g id="edge27" class="edge">
<title>o15&#45;&gt;o16</title>
<path fill="none" stroke="#808080" stroke-width="0.9" d="M427.04,-293.12C429,-286.27 431.61,-277.19 433.89,-269.25"/>
<polygon fill="#808080" stroke="#808080" stroke-width="0.9" points="435.85,-270.03 435.49,-263.68 431.82,-268.87 435.85,-270.03"/>
</g>
<!-- o19 -->
<g id="node30" class="node">
<title>o19</title>
<ellipse fill="#808080" fill-opacity="0.149020" stroke="#808080" stroke-width="1.2" cx="565" cy="-202.38" rx="11.54" ry="11.54"/>
<text xml:space="preserve" text-anchor="middle" x="565" y="-197.93" font-family="Helvetica,Arial,sans-serif" font-size="11.00" fill="#808080">*</text>
</g>
<!-- o16&#45;&gt;o19 -->
<g id="edge34" class="edge">
<title>o16&#45;&gt;o19</title>
<path fill="none" stroke="#3b82f6" stroke-width="0.9" stroke-dasharray="5,2" d="M458.97,-242.16C483.26,-233.27 523.91,-218.41 547.19,-209.89"/>
<polygon fill="#3b82f6" stroke="#3b82f6" stroke-width="0.9" points="547.9,-211.87 552.81,-207.84 546.46,-207.93 547.9,-211.87"/>
</g>
<!-- in7 -->
<g id="node25" class="node">
<title>in7</title>
<path fill="#3b82f6" fill-opacity="0.149020" stroke="#3b82f6" stroke-width="1.2" d="M591.8,-369.72C591.8,-369.72 552.2,-369.72 552.2,-369.72 548.6,-369.72 545,-366.12 545,-362.52 545,-362.52 545,-355.32 545,-355.32 545,-351.72 548.6,-348.12 552.2,-348.12 552.2,-348.12 591.8,-348.12 591.8,-348.12 595.4,-348.12 599,-351.72 599,-355.32 599,-355.32 599,-362.52 599,-362.52 599,-366.12 595.4,-369.72 591.8,-369.72"/>
<text xml:space="preserve" text-anchor="middle" x="572" y="-354.47" font-family="Helvetica,Arial,sans-serif" font-size="11.00" fill="#808080">b0</text>
</g>
<!-- in7&#45;&gt;o17 -->
<g id="edge30" class="edge">
<title>in7&#45;&gt;o17</title>
<path fill="none" stroke="#808080" stroke-width="0.9" d="M578.32,-347.6C582.79,-340.31 588.88,-330.37 594,-322.01"/>
<polygon fill="#808080" stroke="#808080" stroke-width="0.9" points="595.64,-323.36 596.98,-317.15 592.05,-321.17 595.64,-323.36"/>
</g>
<!-- o21 -->
<g id="node32" class="node">
<title>o21</title>
<ellipse fill="#808080" fill-opacity="0.149020" stroke="#808080" stroke-width="1.2" cx="597" cy="-106.22" rx="11.54" ry="11.54"/>
<text xml:space="preserve" text-anchor="middle" x="597" y="-101.77" font-family="Helvetica,Arial,sans-serif" font-size="11.00" fill="#808080">&#45;</text>
</g>
<!-- in7&#45;&gt;o21 -->
<g id="edge38" class="edge">
<title>in7&#45;&gt;o21</title>
<path fill="none" stroke="#808080" stroke-width="0.9" d="M598.26,-347.56C615.29,-340.24 635.17,-330.36 640,-322.38 648.15,-308.93 643.78,-302.26 640,-287 632.67,-257.44 583.33,-195.4 576,-165.84 573.53,-155.88 573.3,-152.65 576,-142.76 578,-135.45 581.93,-128.11 585.86,-122.02"/>
<polygon fill="#808080" stroke="#808080" stroke-width="0.9" points="587.58,-123.22 589.25,-117.08 584.12,-120.84 587.58,-123.22"/>
</g>
<!-- in8 -->
<g id="node26" class="node">
<title>in8</title>
<path fill="#3b82f6" fill-opacity="0.149020" stroke="#3b82f6" stroke-width="1.2" d="M663.8,-369.72C663.8,-369.72 624.2,-369.72 624.2,-369.72 620.6,-369.72 617,-366.12 617,-362.52 617,-362.52 617,-355.32 617,-355.32 617,-351.72 620.6,-348.12 624.2,-348.12 624.2,-348.12 663.8,-348.12 663.8,-348.12 667.4,-348.12 671,-351.72 671,-355.32 671,-355.32 671,-362.52 671,-362.52 671,-366.12 667.4,-369.72 663.8,-369.72"/>
<text xml:space="preserve" text-anchor="middle" x="644" y="-354.47" font-family="Helvetica,Arial,sans-serif" font-size="11.00" fill="#808080">b1</text>
</g>
<!-- in8&#45;&gt;o17 -->
<g id="edge31" class="edge">
<title>in8&#45;&gt;o17</title>
<path fill="none" stroke="#808080" stroke-width="0.9" d="M636.1,-347.6C630.4,-340.16 622.6,-329.98 616.12,-321.52"/>
<polygon fill="#808080" stroke="#808080" stroke-width="0.9" points="618.03,-320.56 612.71,-317.07 614.7,-323.11 618.03,-320.56"/>
</g>
<!-- o24 -->
<g id="node35" class="node">
<title>o24</title>
<ellipse fill="#808080" fill-opacity="0.149020" stroke="#808080" stroke-width="1.2" cx="659" cy="-106.22" rx="11.54" ry="11.54"/>
<text xml:space="preserve" text-anchor="middle" x="659" y="-101.77" font-family="Helvetica,Arial,sans-serif" font-size="11.00" fill="#808080">&#45;</text>
</g>
<!-- in8&#45;&gt;o24 -->
<g id="edge44" class="edge">
<title>in8&#45;&gt;o24</title>
<path fill="none" stroke="#808080" stroke-width="0.9" d="M648.12,-347.54C650.66,-340.56 653.69,-331.07 655,-322.38 661.08,-282.19 660.18,-271.24 655,-230.92 651.19,-201.27 641.81,-195.49 638,-165.84 636.69,-155.67 635.3,-152.65 638,-142.76 640,-135.45 643.93,-128.11 647.86,-122.02"/>
<polygon fill="#808080" stroke="#808080" stroke-width="0.9" points="649.58,-123.22 651.25,-117.08 646.12,-120.84 649.58,-123.22"/>
</g>
<!-- in9 -->
<g id="node27" class="node">
<title>in9</title>
<path fill="#3b82f6" fill-opacity="0.149020" stroke="#3b82f6" stroke-width="1.2" d="M551.8,-315.49C551.8,-315.49 512.2,-315.49 512.2,-315.49 508.6,-315.49 505,-311.89 505,-308.29 505,-308.29 505,-301.09 505,-301.09 505,-297.49 508.6,-293.89 512.2,-293.89 512.2,-293.89 551.8,-293.89 551.8,-293.89 555.4,-293.89 559,-297.49 559,-301.09 559,-301.09 559,-308.29 559,-308.29 559,-311.89 555.4,-315.49 551.8,-315.49"/>
<text xml:space="preserve" text-anchor="middle" x="532" y="-300.24" font-family="Helvetica,Arial,sans-serif" font-size="11.00" fill="#808080">b2</text>
</g>
<!-- o18 -->
<g id="node29" class="node">
<title>o18</title>
<ellipse fill="#808080" fill-opacity="0.149020" stroke="#808080" stroke-width="1.2" cx="565" cy="-250.46" rx="11.54" ry="11.54"/>
<text xml:space="preserve" text-anchor="middle" x="565" y="-246.01" font-family="Helvetica,Arial,sans-serif" font-size="11.00" fill="#808080">&#45;</text>
</g>
<!-- in9&#45;&gt;o18 -->
<g id="edge32" class="edge">
<title>in9&#45;&gt;o18</title>
<path fill="none" stroke="#808080" stroke-width="0.9" d="M538.52,-293.37C543.31,-285.79 549.9,-275.37 555.3,-266.81"/>
<polygon fill="#808080" stroke="#808080" stroke-width="0.9" points="557,-268.05 558.43,-261.86 553.45,-265.81 557,-268.05"/>
</g>
<!-- o17&#45;&gt;o18 -->
<g id="edge33" class="edge">
<title>o17&#45;&gt;o18</title>
<path fill="none" stroke="#808080" stroke-width="0.9" d="M596.29,-293.37C590.51,-285.62 582.5,-274.9 576.03,-266.24"/>
<polygon fill="#808080" stroke="#808080" stroke-width="0.9" points="577.74,-265.01 572.47,-261.46 574.37,-267.52 577.74,-265.01"/>
</g>
<!-- o18&#45;&gt;o19 -->
<g id="edge35" class="edge">
<title>o18&#45;&gt;o19</title>
<path fill="none" stroke="#808080" stroke-width="0.9" d="M565,-238.77C565,-233.61 565,-227.28 565,-221.4"/>
<polygon fill="#808080" stroke="#808080" stroke-width="0.9" points="567.1,-221.69 565,-215.69 562.9,-221.69 567.1,-221.69"/>
</g>
<!-- o19&#45;&gt;o20 -->
<g id="edge37" class="edge">
<title>o19&#45;&gt;o20</title>
<path fill="none" stroke="#808080" stroke-width="0.9" d="M571.17,-192.5C575.54,-186.2 581.51,-177.61 586.61,-170.27"/>
<polygon fill="#808080" stroke="#808080" stroke-width="0.9" points="588.16,-171.72 589.85,-165.59 584.71,-169.32 588.16,-171.72"/>
</g>
<!-- o19&#45;&gt;o23 -->
<g id="edge43" class="edge">
<title>o19&#45;&gt;o23</title>
<path fill="none" stroke="#808080" stroke-width="0.9" d="M575.42,-196.27C591.51,-188.38 622.58,-173.15 641.97,-163.65"/>
<polygon fill="#808080" stroke="#808080" stroke-width="0.9" points="642.85,-165.56 647.31,-161.03 641,-161.79 642.85,-165.56"/>
</g>
<!-- r2 -->
<g id="node39" class="node">
<title>r2</title>
<path fill="#ef4444" fill-opacity="0.149020" stroke="#ef4444" stroke-width="1.2" d="M550.8,-21.6C550.8,-21.6 511.2,-21.6 511.2,-21.6 507.6,-21.6 504,-18 504,-14.4 504,-14.4 504,-7.2 504,-7.2 504,-3.6 507.6,0 511.2,0 511.2,0 550.8,0 550.8,0 554.4,0 558,-3.6 558,-7.2 558,-7.2 558,-14.4 558,-14.4 558,-18 554.4,-21.6 550.8,-21.6"/>
<text xml:space="preserve" text-anchor="middle" x="531" y="-6.35" font-family="Helvetica,Arial,sans-serif" font-size="11.00" fill="#808080">x2</text>
</g>
<!-- o19&#45;&gt;r2 -->
<g id="edge50" class="edge">
<title>o19&#45;&gt;r2</title>
<path fill="none" stroke="#808080" stroke-width="0.9" d="M563.07,-190.64C557.44,-159.21 540.94,-67.21 534.06,-28.87"/>
<polygon fill="#808080" stroke="#808080" stroke-width="0.9" points="536.19,-28.83 533.06,-23.3 532.05,-29.57 536.19,-28.83"/>
</g>
<!-- o20&#45;&gt;o21 -->
<g id="edge39" class="edge">
<title>o20&#45;&gt;o21</title>
<path fill="none" stroke="#808080" stroke-width="0.9" d="M597,-142.61C597,-137.45 597,-131.12 597,-125.24"/>
<polygon fill="#808080" stroke="#808080" stroke-width="0.9" points="599.1,-125.53 597,-119.53 594.9,-125.53 599.1,-125.53"/>
</g>
<!-- o21&#45;&gt;o22 -->
<g id="edge41" class="edge">
<title>o21&#45;&gt;o22</title>
<path fill="none" stroke="#808080" stroke-width="0.9" d="M598.39,-94.53C599.06,-89.37 599.89,-83.04 600.65,-77.16"/>
<polygon fill="#808080" stroke="#808080" stroke-width="0.9" points="602.71,-77.66 601.4,-71.44 598.54,-77.12 602.71,-77.66"/>
</g>
<!-- r0 -->
<g id="node37" class="node">
<title>r0</title>
<path fill="#ef4444" fill-opacity="0.149020" stroke="#ef4444" stroke-width="1.2" d="M622.8,-21.6C622.8,-21.6 583.2,-21.6 583.2,-21.6 579.6,-21.6 576,-18 576,-14.4 576,-14.4 576,-7.2 576,-7.2 576,-3.6 579.6,0 583.2,0 583.2,0 622.8,0 622.8,0 626.4,0 630,-3.6 630,-7.2 630,-7.2 630,-14.4 630,-14.4 630,-18 626.4,-21.6 622.8,-21.6"/>
<text xml:space="preserve" text-anchor="middle" x="603" y="-6.35" font-family="Helvetica,Arial,sans-serif" font-size="11.00" fill="#808080">x0</text>
</g>
<!-- o22&#45;&gt;r0 -->
<g id="edge48" class="edge">
<title>o22&#45;&gt;r0</title>
<path fill="none" stroke="#808080" stroke-width="0.9" d="M603,-46.16C603,-41.12 603,-35.01 603,-29.35"/>
<polygon fill="#808080" stroke="#808080" stroke-width="0.9" points="605.1,-29.42 603,-23.42 600.9,-29.42 605.1,-29.42"/>
</g>
<!-- o23&#45;&gt;o24 -->
<g id="edge45" class="edge">
<title>o23&#45;&gt;o24</title>
<path fill="none" stroke="#808080" stroke-width="0.9" d="M659,-142.61C659,-137.45 659,-131.12 659,-125.24"/>
<polygon fill="#808080" stroke="#808080" stroke-width="0.9" points="661.1,-125.53 659,-119.53 656.9,-125.53 661.1,-125.53"/>
</g>
<!-- o24&#45;&gt;o25 -->
<g id="edge47" class="edge">
<title>o24&#45;&gt;o25</title>
<path fill="none" stroke="#808080" stroke-width="0.9" d="M659,-94.53C659,-89.37 659,-83.04 659,-77.16"/>
<polygon fill="#808080" stroke="#808080" stroke-width="0.9" points="661.1,-77.45 659,-71.45 656.9,-77.45 661.1,-77.45"/>
</g>
<!-- r1 -->
<g id="node38" class="node">
<title>r1</title>
<path fill="#ef4444" fill-opacity="0.149020" stroke="#ef4444" stroke-width="1.2" d="M694.8,-21.6C694.8,-21.6 655.2,-21.6 655.2,-21.6 651.6,-21.6 648,-18 648,-14.4 648,-14.4 648,-7.2 648,-7.2 648,-3.6 651.6,0 655.2,0 655.2,0 694.8,0 694.8,0 698.4,0 702,-3.6 702,-7.2 702,-7.2 702,-14.4 702,-14.4 702,-18 698.4,-21.6 694.8,-21.6"/>
<text xml:space="preserve" text-anchor="middle" x="675" y="-6.35" font-family="Helvetica,Arial,sans-serif" font-size="11.00" fill="#808080">x1</text>
</g>
<!-- o25&#45;&gt;r1 -->
<g id="edge49" class="edge">
<title>o25&#45;&gt;r1</title>
<path fill="none" stroke="#808080" stroke-width="0.9" d="M662.71,-46.62C664.6,-41.28 666.93,-34.67 669.06,-28.64"/>
<polygon fill="#808080" stroke="#808080" stroke-width="0.9" points="670.95,-29.59 670.97,-23.23 666.99,-28.19 670.95,-29.59"/>
</g>
</g>
</svg>
